<svg xmlns="http://www.w3.org/2000/svg" width="16" height="16" fill="currentColor" class="qi-150" viewBox="0 0 16 16">
  <path stroke="currentColor" stroke-width="0.5" d="M4.522 2.114c-.358 2.064-.209 4.446 1.498 6.238 1.672 1.754 4.382 2.448 6.627 2.281-.204.266-.434.52-.69.757-2.428 2.246-6.248 2.128-8.528-.264a5.858 5.858 0 0 1 .267-8.37 6.056 6.056 0 0 1 .826-.642ZM5.435 1.632c.091-.395-.281-.766-.649-.586a6.83 6.83 0 0 0-1.632 1.121 6.658 6.658 0 0 0-.304 9.51c2.582 2.709 6.902 2.842 9.651.299a6.746 6.746 0 0 0 1.238-1.536c.206-.35-.146-.739-.552-.674-2.164.344-4.974-.274-6.587-1.966-1.592-1.676-1.627-4.043-1.165-6.168Z"/>
</svg>