<svg xmlns="http://www.w3.org/2000/svg" width="30" height="30" viewBox="6 6 31 31" fill="none">
  <path d="M9.1 11.2c0-1.1.9-2 2-2h17.8c1.1 0 2 .9 2 2v17.6c0 1.1-.9 2-2 2H11.1c-1.1 0-2-.9-2-2V11.2z" fill="none"></path>
  <path d="M17.666 16.704V15.654c-.365-.044-.73-.073-1.109-.073-4.521 0-8.211 3.674-8.211 8.208 0 2.77 1.386 5.233 3.5 6.72-1.371-1.472-2.202-3.426-2.202-5.583.015-4.476 3.573-8.12 8.007-8.222" fill="#00FAF0"></path>
  <path d="M17.856 28.643c2.013 0 3.661-1.604 3.734-3.6V7.184h3.267c-.073-.365-.102-.744-.102-1.137h-4.463V23.905c-.073 1.997-1.722 3.6-3.734 3.6-.628 0-1.226-.16-1.736-.437.686.962 1.794 1.575 3.034 1.575" fill="#00FAF0"></path>
  <path d="M30.967 13.249v-.991c-1.24 0-2.407-.364-3.384-1.006.875.991 2.056 1.706 3.384 1.997" fill="#00FAF0"></path>
  <path d="M27.6 11.253c-.948-1.093-1.531-2.507-1.531-4.067H24.872c.321 1.691 1.327 3.149 2.727 4.067" fill="#FE2C55"></path>
  <path d="M16.558 20.027c-2.071 0-3.748 1.676-3.748 3.746 0 1.443.817 2.682 2.013 3.309-.437-.612-.714-1.37-.714-2.186 0-2.07 1.677-3.746 3.748-3.746.38 0 .759.058 1.109.175V16.776c-.365-.044-.73-.073-1.109-.073-.058 0-.13 0-.189 0v3.499c-.35-.117-.715-.175-1.109-.175" fill="#FE2C55"></path>
  <path d="M30.968 13.248v3.47c-2.319 0-4.448-.743-6.199-1.997v9.053c0 4.519-3.676 8.207-8.212 8.207-1.75 0-3.369-.554-4.697-1.487 1.502 1.604 3.632 2.624 6.01 2.624 4.521 0 8.211-3.674 8.211-8.207v-9.053c1.75 1.254 3.894 1.997 6.199 1.997v-4.46c-.452-.015-.89-.058-1.313-.146" fill="#FE2C55"></path>
  <path d="M24.768 23.774V14.721c1.75 1.254 3.894 1.997 6.199 1.997v-3.47c-1.342-.291-2.509-1.006-3.384-1.997-1.4-.904-2.406-2.362-2.713-4.068H21.603v17.858c-.073 1.997-1.721 3.6-3.734 3.6-1.244 0-2.353-.612-3.024-1.56-1.196-.627-2.013-1.88-2.013-3.309 0-2.07 1.677-3.746 3.748-3.746.38 0 .759.058 1.109.175v-3.499c-4.434.102-8.007 3.746-8.007 8.192 0 2.158.831 4.126 2.202 5.584 1.327.933 2.96 1.487 4.696 1.487 4.507.015 8.197-3.673 8.197-8.192" fill="#333"></path>
</svg>